<svg width="875" height="154" viewBox="0 0 875 154" fill="none" xmlns="http://www.w3.org/2000/svg">
<path d="M291 48.918C291.5 49.489 292 50.0601 292.516 50.6484C293.98 52.2001 293.98 52.2001 296.398 51.7578C299.033 50.9073 301.216 49.8381 303.625 48.4805C314.92 42.7249 329.346 41.8789 341.438 45.543C346.682 47.5494 350.889 50.1026 355 53.918C355.543 54.4194 356.085 54.9209 356.645 55.4375C364.628 63.744 367.133 74.9422 367.114 86.1167C367.114 86.8101 367.114 87.5035 367.114 88.2179C367.113 90.4903 367.106 92.7627 367.098 95.0352C367.096 96.6184 367.094 98.2017 367.093 99.7849C367.09 103.938 367.08 108.09 367.069 112.243C367.057 117.233 367.052 122.223 367.046 127.214C367.037 134.782 367.017 142.35 367 149.918C356.11 149.918 345.22 149.918 334 149.918C333.974 145.319 333.948 140.719 333.922 135.98C333.897 133.055 333.87 130.129 333.84 127.203C333.792 122.566 333.748 117.93 333.729 113.292C333.714 109.551 333.679 105.81 333.632 102.069C333.617 100.646 333.609 99.224 333.608 97.8015C333.604 86.7183 333.604 86.7183 329 76.918C324.505 74.2619 320.104 74.1061 315 74.918C311.878 76.6008 309.609 78.7007 308 81.918C307.879 84.0721 307.823 86.2299 307.795 88.3872C307.785 89.0507 307.775 89.7143 307.765 90.3979C307.733 92.5947 307.708 94.7914 307.684 96.9883C307.663 98.51 307.642 100.032 307.621 101.553C307.565 105.561 307.516 109.569 307.468 113.578C307.409 118.385 307.343 123.192 307.277 128C307.179 135.306 307.091 142.612 307 149.918C296.11 149.918 285.22 149.918 274 149.918C273.974 145.319 273.948 140.719 273.922 135.98C273.897 133.055 273.87 130.129 273.84 127.203C273.792 122.566 273.748 117.93 273.729 113.292C273.714 109.551 273.679 105.81 273.632 102.069C273.617 100.646 273.609 99.224 273.608 97.8015C273.604 86.7183 273.604 86.7183 269 76.918C264.505 74.2619 260.104 74.1061 255 74.918C251.878 76.6008 249.609 78.7007 248 81.918C247.879 84.0721 247.823 86.2299 247.795 88.3872C247.785 89.0507 247.775 89.7143 247.765 90.3979C247.733 92.5947 247.708 94.7914 247.684 96.9883C247.663 98.51 247.642 100.032 247.621 101.553C247.565 105.561 247.516 109.569 247.468 113.578C247.409 118.385 247.343 123.192 247.277 128C247.179 135.306 247.091 142.612 247 149.918C236.11 149.918 225.22 149.918 214 149.918C214 115.928 214 81.938 214 46.918C224.56 46.918 235.12 46.918 246 46.918C246 48.568 246 50.218 246 51.918C246.66 51.918 247.32 51.918 248 51.918C248 51.258 248 50.598 248 49.918C249.726 49.0988 251.456 48.2879 253.188 47.4805C254.15 47.028 255.113 46.5755 256.105 46.1094C267.446 41.4417 280.52 42.8388 291 48.918Z" fill="#020202"/>
<path d="M455 50.9179C455.33 49.5979 455.66 48.2779 456 46.9179C466.89 46.9179 477.78 46.9179 489 46.9179C489 80.9079 489 114.898 489 149.918C478.11 149.918 467.22 149.918 456 149.918C455.67 148.268 455.34 146.618 455 144.918C454.527 145.244 454.054 145.57 453.566 145.906C442.955 152.918 432.417 154.822 419.754 152.262C407.691 148.622 396.084 141.299 389.801 130.168C389.064 128.778 388.339 127.382 387.625 125.98C387.291 125.324 386.957 124.668 386.613 123.992C380.217 110.664 379.566 92.8805 383.563 78.7304C389.164 63.9165 397.71 53.7034 412.207 47.0703C426.244 41.2787 442.227 42.4024 455 50.9179Z" fill="#010101"/>
<path d="M591 3.91797C601.89 3.91797 612.78 3.91797 624 3.91797C624.33 29.658 624.66 55.398 625 81.918C634.861 69.3805 634.861 69.3805 642.193 57.021C644.799 52.487 647.259 49.3053 652 46.918C664.181 44.17 677.682 45.8407 690 46.918C688.504 50.0098 686.865 52.5014 684.688 55.168C683.62 56.4828 683.62 56.4828 682.531 57.8242C681.696 58.8452 680.861 59.8661 680 60.918C676.213 65.5612 672.433 70.2105 668.664 74.8677C667.564 76.2227 666.462 77.5753 665.356 78.9253C663.812 80.8118 662.28 82.7075 660.75 84.6055C660.284 85.1691 659.818 85.7328 659.339 86.3135C655.801 90.6387 655.801 90.6387 655 95.918C656.592 98.9006 658.62 101.501 660.688 104.168C661.901 105.787 663.113 107.407 664.324 109.027C664.942 109.845 665.56 110.663 666.197 111.506C668.876 115.089 671.439 118.75 674 122.418C678.922 129.431 683.931 136.379 688.988 143.295C689.513 144.016 690.038 144.737 690.578 145.48C691.046 146.121 691.515 146.762 691.997 147.422C693 148.918 693 148.918 693 149.918C687.611 150.217 682.227 150.433 676.832 150.577C675.001 150.637 673.17 150.719 671.342 150.823C656.246 151.663 656.246 151.663 651.03 147.611C648.679 144.499 646.844 141.352 645 137.918C643.612 135.904 642.199 133.906 640.762 131.926C639.401 129.966 638.043 128.006 636.688 126.043C635.998 125.05 635.309 124.058 634.6 123.035C631.356 118.356 628.159 113.656 625 108.918C624.67 122.448 624.34 135.978 624 149.918C613.11 149.918 602.22 149.918 591 149.918C591 101.738 591 53.558 591 3.91797Z" fill="black"/>
<path d="M775.25 50.668C776.52 51.7277 777.77 52.8119 779 53.918C779.667 54.4813 780.333 55.0447 781.02 55.6251C790.388 64.1339 795.444 75.2968 796.169 87.8414C796.231 90.8698 796.225 93.8892 796.188 96.918C796.187 98.4707 796.187 98.4707 796.186 100.055C796.141 107.636 796.141 107.636 795 109.918C773.22 109.918 751.44 109.918 729 109.918C736.863 118.952 736.863 118.952 747.552 122.265C750.279 122.419 752.958 122.421 755.688 122.356C756.65 122.344 757.613 122.332 758.604 122.32C766.387 122.133 773.489 121.001 781 118.918C784.96 117.928 784.96 117.928 789 116.918C789 126.158 789 135.398 789 144.918C769.437 153.613 748.491 156.697 728 148.918C714.059 143.068 704.816 133.931 698.34 120.473C695.533 113.024 694.635 105.975 694.688 98.043C694.693 97.1653 694.698 96.2876 694.703 95.3834C694.821 88.8459 695.517 83.0193 698 76.918C698.329 76.084 698.658 75.25 698.996 74.3907C704.689 61.607 716.04 51.0502 729 45.918C743.698 41.4127 762.396 41.6553 775.25 50.668Z" fill="#010101"/>
<path d="M78 3.91799C78 13.818 78 23.718 78 33.918C75.36 33.588 72.72 33.258 70 32.918C61.7515 32.2619 61.7515 32.2619 53.875 34.3555C49.9922 37.3138 49.9922 37.3138 49 45.918C57.25 45.918 65.5 45.918 74 45.918C74 55.818 74 65.718 74 75.918C65.75 75.918 57.5 75.918 49 75.918C49 100.338 49 124.758 49 149.918C38.11 149.918 27.22 149.918 16 149.918C16 125.498 16 101.078 16 75.918C10.72 75.918 5.44 75.918 0 75.918C0 66.348 0 56.778 0 46.918C5.28 46.918 10.56 46.918 16 46.918C15.9587 45.3092 15.9175 43.7005 15.875 42.043C15.9362 30.088 19.0415 21.1606 27.125 12.168C39.5812 0.485144 62.4435 -3.86025 78 3.91799Z" fill="#020202"/>
<path d="M824 18.918C834.89 18.918 845.78 18.918 857 18.918C857 27.828 857 36.738 857 45.918C862.94 45.918 868.88 45.918 875 45.918C875 55.818 875 65.718 875 75.918C869.06 75.918 863.12 75.918 857 75.918C857 100.338 857 124.758 857 149.918C846.11 149.918 835.22 149.918 824 149.918C824 125.498 824 101.078 824 75.918C818.72 75.918 813.44 75.918 808 75.918C808 66.348 808 56.778 808 46.918C813.28 46.918 818.56 46.918 824 46.918C824 37.678 824 28.438 824 18.918Z" fill="#020202"/>
<path d="M155 43.9179C155 54.8079 155 65.6979 155 76.9179C145.375 77.1679 145.375 77.1679 142.376 77.2158C135.476 77.4808 131.699 79.0451 126.875 84.1791C123.513 89.4108 124.394 96.0772 124.391 102.066C124.376 103.448 124.359 104.829 124.341 106.211C124.297 109.831 124.277 113.451 124.262 117.071C124.242 120.771 124.2 124.472 124.16 128.172C124.083 135.421 124.042 142.668 124 149.918C112.78 149.918 101.56 149.918 90 149.918C90 115.928 90 81.9379 90 46.9179C100.89 46.9179 111.78 46.9179 123 46.9179C123 48.5679 123 50.2179 123 51.9179C123.964 51.4242 124.928 50.9305 125.922 50.4218C127.198 49.7745 128.474 49.1274 129.75 48.4804C130.384 48.1549 131.018 47.8294 131.672 47.4941C140.199 43.186 144.273 43.9179 155 43.9179Z" fill="#060606"/>
<path d="M575 43.918C575 54.478 575 65.038 575 75.918C572.546 76.0005 570.091 76.083 567.562 76.168C561.19 76.5088 555.318 77.0393 550 80.918C546.021 85.7928 544.885 89.5819 544.795 95.7664C544.775 96.9674 544.755 98.1684 544.734 99.4058C544.718 100.703 544.701 102 544.684 103.336C544.663 104.677 544.642 106.018 544.621 107.359C544.565 110.885 544.516 114.411 544.468 117.938C544.418 121.537 544.362 125.137 544.307 128.736C544.199 135.797 544.1 142.857 544 149.918C533.11 149.918 522.22 149.918 511 149.918C511 115.928 511 81.938 511 46.918C521.89 46.918 532.78 46.918 544 46.918C544.495 48.898 544.495 48.898 545 50.918C545.641 50.5802 546.281 50.2425 546.941 49.8945C557.207 44.6012 562.665 43.918 575 43.918Z" fill="black"/>
<path d="M447 75.918C452.841 81.2155 456.451 85.9431 457.336 93.9609C457.441 102.422 456.876 110.519 451.059 117.121C444.737 122.849 439.824 123.273 431.391 123.195C425.527 122.716 423.16 120.131 419.25 116.043C413.433 107.964 413.951 97.481 415 87.918C416.942 81.113 421.012 77.4017 427 73.918C433.74 71.7677 441.074 71.9212 447 75.918Z" fill="#FCFCFC"/>
<path d="M181.352 112.535C187.753 115.328 190.998 120.524 194.438 126.355C195.791 132.521 194.352 138.572 191.379 144.059C188.472 147.978 184.333 150.751 180 152.918C172.747 153.637 166.583 153.82 160.582 149.348C156.392 145.561 153.302 141.607 152.664 135.93C152.583 128.987 152.631 124.437 157 118.918C164.06 111.877 171.597 109.975 181.352 112.535Z" fill="#020202"/>
<path d="M754.75 74.168C761.01 77.5388 762.656 78.8873 765 85.918C753.12 85.918 741.24 85.918 729 85.918C732.392 79.1343 732.392 79.1343 735.5 76.6055C736.088 76.1144 736.676 75.6232 737.281 75.1172C742.457 71.506 749.076 72.2766 754.75 74.168Z" fill="#FAFAFA"/>
</svg>
